<svg class="svg-icon" style="width: 1em;height: 1em;vertical-align: middle;fill: currentColor;overflow: hidden;" viewBox="0 0 1024 1024" version="1.1" xmlns="http://www.w3.org/2000/svg"><path d="M554.666667 362.666667v298.666666a21.333333 21.333333 0 0 1-21.333334 21.333334h-42.666666a21.333333 21.333333 0 0 1-21.333334-21.333334v-298.666666a21.333333 21.333333 0 0 1 21.333334-21.333334h42.666666a21.333333 21.333333 0 0 1 21.333334 21.333334zM704 128h-42.666667a21.333333 21.333333 0 0 0-21.333333 21.333333v725.333334a21.333333 21.333333 0 0 0 21.333333 21.333333h42.666667a21.333333 21.333333 0 0 0 21.333333-21.333333v-725.333334a21.333333 21.333333 0 0 0-21.333333-21.333333z m170.666667 298.666667h-42.666667a21.333333 21.333333 0 0 0-21.333333 21.333333v128a21.333333 21.333333 0 0 0 21.333333 21.333333h42.666667a21.333333 21.333333 0 0 0 21.333333-21.333333v-128a21.333333 21.333333 0 0 0-21.333333-21.333333z m-682.666667 42.666666h-42.666667a21.333333 21.333333 0 0 0-21.333333 21.333334v42.666666a21.333333 21.333333 0 0 0 21.333333 21.333334h42.666667a21.333333 21.333333 0 0 0 21.333333-21.333334v-42.666666a21.333333 21.333333 0 0 0-21.333333-21.333334z m170.666667-213.333333h-42.666667a21.333333 21.333333 0 0 0-21.333333 21.333333v469.333334a21.333333 21.333333 0 0 0 21.333333 21.333333h42.666667a21.333333 21.333333 0 0 0 21.333333-21.333333v-469.333334a21.333333 21.333333 0 0 0-21.333333-21.333333z"  /></svg>