<svg class="svg-icon" style="width: 1em;height: 1em;vertical-align: middle;fill: currentColor;overflow: hidden;" viewBox="0 0 1024 1024" version="1.1" xmlns="http://www.w3.org/2000/svg"><path d="M326.4 317.6h371.2c1.2 0 2.2 0.2 3.2 0.4s2.2 0.6 3.2 1 2 1 3 1.6c1 0.6 1.8 1.4 2.6 2 0.8 0.8 1.4 1.6 2 2.6 0.6 1 1.2 1.8 1.6 3s0.8 2 1 3.2c0.2 1 0.4 2.2 0.4 3.2v371.2c0 1.2-0.2 2.2-0.4 3.2s-0.6 2.2-1 3.2-1 2-1.6 3c-0.6 1-1.4 1.8-2 2.6-0.8 0.8-1.6 1.4-2.6 2-1 0.6-1.8 1.2-3 1.6-1 0.4-2 0.8-3.2 1-1 0.2-2.2 0.4-3.2 0.4H326.4c-1.2 0-2.2-0.2-3.2-0.4s-2.2-0.6-3.2-1-2-1-3-1.6c-1-0.6-1.8-1.4-2.6-2-0.8-0.8-1.4-1.6-2-2.6-0.6-1-1.2-1.8-1.6-3-0.4-1-0.8-2-1-3.2-0.2-1-0.4-2.2-0.4-3.2V334.4c0-1.2 0.2-2.2 0.4-3.2s0.6-2.2 1-3.2 1-2 1.6-3c0.6-1 1.4-1.8 2-2.6 0.8-0.8 1.6-1.4 2.6-2 1-0.6 1.8-1.2 3-1.6s2-0.8 3.2-1 2-0.2 3.2-0.2z"  /><path d="M782 722.4c0 2.2-0.2 4.4-0.4 6.6-0.2 2.2-0.6 4.4-1 6.6-0.4 2.2-1 4.4-1.6 6.4-0.6 2.2-1.4 4.2-2.2 6.2-0.8 2-1.8 4-2.8 6-1 2-2.2 3.8-3.4 5.6-1.2 1.8-2.6 3.6-4 5.4a52.438 52.438 0 0 1-9.4 9.4c-1.8 1.4-3.4 2.8-5.4 4-1.8 1.2-3.8 2.4-5.6 3.4-2 1-4 2-6 2.8-2 0.8-4.2 1.6-6.2 2.2-2.2 0.6-4.2 1.2-6.4 1.6-2.2 0.4-4.4 0.8-6.6 1s-4.4 0.4-6.6 0.4H309.4c-2.2 0-4.4-0.2-6.6-0.4s-4.4-0.6-6.6-1c-2.2-0.4-4.4-1-6.4-1.6-2.2-0.6-4.2-1.4-6.2-2.2s-4-1.8-6-2.8c-2-1-3.8-2.2-5.6-3.4-1.8-1.2-3.6-2.6-5.4-4a52.438 52.438 0 0 1-9.4-9.4c-1.4-1.8-2.8-3.4-4-5.4-1.2-1.8-2.4-3.8-3.4-5.6-1-2-2-4-2.8-6-0.8-2-1.6-4.2-2.2-6.2-0.6-2.2-1.2-4.2-1.6-6.4-0.4-2.2-0.8-4.4-1-6.6s-0.4-4.4-0.4-6.6V317.6c0-2.2 0.2-4.4 0.4-6.6 0.2-2.2 0.6-4.4 1-6.6 0.4-2.2 1-4.4 1.6-6.4 0.6-2.2 1.4-4.2 2.2-6.2 0.8-2 1.8-4 2.8-6 1-2 2.2-3.8 3.4-5.6 1.2-1.8 2.6-3.6 4-5.4a52.438 52.438 0 0 1 9.4-9.4c1.8-1.4 3.4-2.8 5.4-4 1.8-1.2 3.8-2.4 5.6-3.4 2-1 4-2 6-2.8 2-0.8 4.2-1.6 6.2-2.2s4.2-1.2 6.4-1.6c2.2-0.4 4.4-0.8 6.6-1 2.2-0.2 4.4-0.4 6.6-0.4h405c2.2 0 4.4 0.2 6.6 0.4 2.2 0.2 4.4 0.6 6.6 1 2.2 0.4 4.4 1 6.4 1.6 2.2 0.6 4.2 1.4 6.2 2.2 2 0.8 4 1.8 6 2.8 2 1 3.8 2.2 5.6 3.4s3.6 2.6 5.4 4a52.438 52.438 0 0 1 9.4 9.4c1.4 1.8 2.8 3.4 4 5.4 1.2 1.8 2.4 3.8 3.4 5.6 1 2 2 4 2.8 6 0.8 2 1.6 4.2 2.2 6.2 0.6 2.2 1.2 4.2 1.6 6.4 0.4 2.2 0.8 4.4 1 6.6s0.4 4.4 0.4 6.6v404.8z m168.8-337.4c1.2 0 2.2 0 3.4-0.2 1-0.2 2.2-0.2 3.2-0.4s2.2-0.4 3.2-0.8 2-0.6 3.2-1.2c1-0.4 2-0.8 3-1.4 1-0.6 2-1 2.8-1.8 1-0.6 1.8-1.2 2.6-2s1.6-1.4 2.4-2.2c0.8-0.8 1.6-1.6 2.2-2.4 0.8-0.8 1.4-1.8 2-2.6 0.6-1 1.2-1.8 1.8-2.8 0.6-1 1-2 1.4-3 0.4-1 0.8-2 1.2-3.2 0.4-1 0.6-2.2 0.8-3.2 0.2-1 0.4-2.2 0.4-3.2 0.2-1.2 0.2-2.2 0.2-3.4 0-1.2 0-2.2-0.2-3.4-0.2-1.2-0.2-2.2-0.4-3.2s-0.4-2.2-0.8-3.2-0.6-2-1.2-3.2-0.8-2-1.4-3c-0.6-1-1-2-1.8-2.8-0.6-1-1.2-1.8-2-2.6s-1.4-1.6-2.2-2.4c-0.8-0.8-1.6-1.6-2.4-2.2-0.8-0.8-1.8-1.4-2.6-2-1-0.6-1.8-1.2-2.8-1.8-1-0.6-2-1-3-1.4s-2-0.8-3.2-1.2c-1-0.4-2.2-0.6-3.2-0.8s-2.2-0.4-3.2-0.4c-1.2-0.2-2.2-0.2-3.4-0.2h-33.8V250c0-2.2 0-4.4-0.2-6.6-0.2-2.2-0.2-4.4-0.4-6.6-0.2-2.2-0.4-4.4-0.8-6.6l-1.2-6.6c-0.4-2.2-1-4.4-1.4-6.4s-1.2-4.2-1.8-6.4-1.4-4.2-2-6.2c-0.8-2-1.6-4.2-2.4-6.2-0.8-2-1.8-4-2.6-6l-3-6c-1-2-2.2-3.8-3.2-5.8-1.2-1.8-2.4-3.8-3.6-5.6-1.2-1.8-2.4-3.6-3.8-5.4-1.4-1.8-2.6-3.6-4-5.2s-2.8-3.4-4.4-5-3-3.2-4.6-4.8c-1.6-1.6-3.2-3-4.8-4.6-1.6-1.4-3.4-3-5-4.4-1.8-1.4-3.4-2.8-5.2-4s-3.6-2.6-5.4-3.8-3.8-2.4-5.6-3.6c-1.8-1.2-3.8-2.2-5.8-3.2l-6-3c-2-1-4-1.8-6-2.6s-4-1.6-6.2-2.4c-2-0.8-4.2-1.4-6.2-2-2.2-0.6-4.2-1.2-6.4-1.8-2.2-0.6-4.2-1-6.4-1.4l-6.6-1.2c-2.2-0.4-4.4-0.6-6.6-0.8-2.2-0.2-4.4-0.4-6.6-0.4-2.2-0.2-4.4-0.2-6.6-0.2h-67.6v-34c0-1.2 0-2.2-0.2-3.4-0.2-1-0.2-2.2-0.4-3.2s-0.4-2.2-0.8-3.2-0.6-2-1.2-3.2c-0.4-1-0.8-2-1.4-3-0.6-1-1-2-1.8-2.8-0.6-1-1.2-1.8-2-2.6s-1.4-1.6-2.2-2.4c-0.8-0.8-1.6-1.6-2.4-2.2s-1.8-1.4-2.6-2c-1-0.6-1.8-1.2-2.8-1.8-1-0.6-2-1-3-1.4-1-0.4-2-0.8-3.2-1.2-1-0.4-2.2-0.6-3.2-0.8-1-0.2-2.2-0.4-3.2-0.4-1.2-0.2-2.2-0.2-3.4-0.2-1.2 0-2.2 0-3.4 0.2-1.2 0.2-2.2 0.2-3.2 0.4s-2.2 0.4-3.2 0.8-2 0.6-3.2 1.2c-1 0.4-2 0.8-3 1.4-1 0.6-2 1-2.8 1.8-1 0.6-1.8 1.2-2.6 2s-1.6 1.4-2.4 2.2c-0.8 0.8-1.6 1.6-2.2 2.4-0.8 0.8-1.4 1.8-2 2.6-0.6 1-1.2 1.8-1.8 2.8-0.6 1-1 2-1.4 3-0.4 1-0.8 2-1.2 3.2-0.4 1-0.6 2.2-0.8 3.2-0.2 1-0.4 2.2-0.4 3.2-0.2 1.2-0.2 2.2-0.2 3.4v33.8h-101.2V81.2c0-1.2 0-2.2-0.2-3.4-0.2-1-0.2-2.2-0.4-3.2s-0.4-2.2-0.8-3.2-0.6-2-1.2-3.2c-0.4-1-0.8-2-1.4-3-0.6-1-1-2-1.8-2.8-0.6-1-1.2-1.8-2-2.6s-1.4-1.6-2.2-2.4c-0.8-0.8-1.6-1.6-2.4-2.2-0.8-0.8-1.8-1.4-2.6-2s-1.8-1.2-2.8-1.8c-1-0.6-2-1-3-1.4-1-0.4-2-0.8-3.2-1.2-1-0.4-2.2-0.6-3.2-0.8-1-0.2-2.2-0.4-3.2-0.4-1-0.2-2.2-0.2-3.4-0.2-1.2 0-2.2 0-3.4 0.2-1.2 0.2-2.2 0.2-3.2 0.4s-2.2 0.4-3.2 0.8-2 0.6-3.2 1.2c-1 0.4-2 0.8-3 1.4-1 0.6-2 1-2.8 1.8-1 0.6-1.8 1.2-2.6 2s-1.6 1.4-2.4 2.2c-0.8 0.8-1.6 1.6-2.2 2.4-0.8 0.8-1.4 1.8-2 2.6-0.6 1-1.2 1.8-1.8 2.8s-1 2-1.4 3c-0.4 1-0.8 2-1.2 3.2s-0.6 2.2-0.8 3.2-0.4 2.2-0.4 3.2c-0.2 1.2-0.2 2.2-0.2 3.4v33.8h-101.2V81.2c0-1.2 0-2.2-0.2-3.4-0.2-1-0.2-2.2-0.4-3.2s-0.4-2.2-0.8-3.2-0.6-2-1.2-3.2c-0.4-1-0.8-2-1.4-3-0.6-1-1-2-1.8-2.8-0.6-1-1.2-1.8-2-2.6s-1.4-1.6-2.2-2.4c-0.8-0.8-1.6-1.6-2.4-2.2-0.8-0.8-1.8-1.4-2.6-2-1-0.6-1.8-1.2-2.8-1.8-1-0.6-2-1-3-1.4-1-0.4-2-0.8-3.2-1.2-1-0.4-2.2-0.6-3.2-0.8-1-0.2-2.2-0.4-3.2-0.4-1.2-0.2-2.2-0.2-3.4-0.2-1.2 0-2.2 0-3.4 0.2-1.2 0.2-2.2 0.2-3.2 0.4s-2.2 0.4-3.2 0.8-2 0.6-3.2 1.2c-1 0.4-2 0.8-3 1.4-1 0.6-2 1-2.8 1.8s-1.8 1.2-2.6 2-1.6 1.4-2.4 2.2c-0.8 0.8-1.6 1.6-2.2 2.4-0.8 0.8-1.4 1.8-2 2.6-0.6 1-1.2 1.8-1.8 2.8s-1 2-1.4 3c-0.4 1-0.8 2-1.2 3.2s-0.6 2.2-0.8 3.2-0.4 2.2-0.4 3.2c-0.2 1.2-0.2 2.2-0.2 3.4v33.8H242c-2.2 0-4.4 0-6.6 0.2-2.2 0.2-4.4 0.2-6.6 0.4s-4.4 0.4-6.6 0.8l-6.6 1.2c-2.2 0.4-4.4 1-6.4 1.4-2.2 0.6-4.2 1.2-6.4 1.8-2.2 0.6-4.2 1.4-6.2 2-2 0.8-4.2 1.6-6.2 2.4-2 0.8-4 1.8-6 2.6l-6 3c-2 1-3.8 2.2-5.8 3.2-1.8 1.2-3.8 2.4-5.6 3.6s-3.6 2.4-5.4 3.8c-1.8 1.4-3.6 2.6-5.2 4-1.8 1.4-3.4 2.8-5 4.4-1.6 1.4-3.2 3-4.8 4.6-1.6 1.6-3 3.2-4.6 4.8s-3 3.4-4.4 5c-1.4 1.8-2.8 3.4-4 5.2-1.4 1.8-2.6 3.6-3.8 5.4-1.2 1.8-2.4 3.8-3.6 5.6-1.2 1.8-2.2 3.8-3.2 5.8l-3 6c-1 2-1.8 4-2.6 6s-1.6 4-2.4 6.2c-0.8 2-1.4 4.2-2 6.2s-1.2 4.2-1.8 6.4c-0.6 2.2-1 4.2-1.4 6.4l-1.2 6.6c-0.4 2.2-0.6 4.4-0.8 6.6-0.2 2.2-0.4 4.4-0.4 6.6-0.2 2.2-0.2 4.4-0.2 6.6v67.6h-34c-1.2 0-2.2 0-3.4 0.2-1.2 0.2-2.2 0.2-3.2 0.4s-2.2 0.4-3.2 0.8-2 0.6-3.2 1.2c-1 0.4-2 0.8-3 1.4-1 0.6-2 1-2.8 1.8-1 0.6-1.8 1.2-2.6 2s-1.6 1.4-2.4 2.2c-0.8 0.8-1.6 1.6-2.2 2.4s-1.4 1.8-2 2.6c-0.6 1-1.2 1.8-1.8 2.8s-1 2-1.4 3-0.8 2-1.2 3.2c-0.4 1-0.6 2.2-0.8 3.2s-0.4 2.2-0.4 3.2c-0.2 1.2-0.2 2.2-0.2 3.4 0 1.2 0 2.2 0.2 3.4 0.2 1.2 0.2 2.2 0.4 3.2s0.4 2.2 0.8 3.2 0.6 2 1.2 3.2c0.4 1 0.8 2 1.4 3s1 2 1.8 2.8c0.6 1 1.2 1.8 2 2.6s1.4 1.6 2.2 2.4c0.8 0.8 1.6 1.6 2.4 2.2 0.8 0.8 1.8 1.4 2.6 2 1 0.6 1.8 1.2 2.8 1.8 1 0.6 2 1 3 1.4 1 0.4 2 0.8 3.2 1.2 1 0.4 2.2 0.6 3.2 0.8 1 0.2 2.2 0.4 3.2 0.4s2.2 0.2 3.4 0.2h33.8v101.2H73.2c-1.2 0-2.2 0-3.4 0.2-1.2 0.2-2.2 0.2-3.2 0.4s-2.2 0.4-3.2 0.8-2 0.6-3.2 1.2c-1 0.4-2 0.8-3 1.4-1 0.6-2 1-2.8 1.8-1 0.6-1.8 1.2-2.6 2s-1.6 1.4-2.4 2.2c-0.8 0.8-1.6 1.6-2.2 2.4-0.8 0.8-1.4 1.8-2 2.6-0.6 1-1.2 1.8-1.8 2.8-0.6 1-1 2-1.4 3s-0.8 2-1.2 3.2-0.6 2.2-0.8 3.2c-0.2 1-0.4 2.2-0.4 3.2-0.2 1.2-0.2 2.2-0.2 3.4s0 2.2 0.2 3.4c0.2 1.2 0.2 2.2 0.4 3.2s0.4 2.2 0.8 3.2 0.6 2 1.2 3.2c0.4 1 0.8 2 1.4 3 0.6 1 1 2 1.8 2.8 0.6 1 1.2 1.8 2 2.6s1.4 1.6 2.2 2.4 1.6 1.6 2.4 2.2c0.8 0.8 1.8 1.4 2.6 2 1 0.6 1.8 1.2 2.8 1.8 1 0.6 2 1 3 1.4 1 0.4 2 0.8 3.2 1.2 1 0.4 2.2 0.6 3.2 0.8 1 0.2 2.2 0.4 3.2 0.4 1.2 0.2 2.2 0.2 3.4 0.2h33.8v101.2H73.2c-1.2 0-2.2 0-3.4 0.2s-2.2 0.2-3.2 0.4-2.2 0.4-3.2 0.8-2 0.6-3.2 1.2c-1 0.4-2 0.8-3 1.4-1 0.6-2 1-2.8 1.8-1 0.6-1.8 1.2-2.6 2s-1.6 1.4-2.4 2.2-1.6 1.6-2.2 2.4c-0.8 0.8-1.4 1.8-2 2.6-0.6 1-1.2 1.8-1.8 2.8-0.6 1-1 2-1.4 3-0.4 1-0.8 2-1.2 3.2-0.4 1-0.6 2.2-0.8 3.2s-0.4 2.2-0.4 3.2c-0.2 1.2-0.2 2.2-0.2 3.4s0 2.2 0.2 3.4c0.2 1.2 0.2 2.2 0.4 3.2s0.4 2.2 0.8 3.2 0.6 2 1.2 3.2c0.4 1 0.8 2 1.4 3 0.6 1 1 2 1.8 2.8 0.6 1 1.2 1.8 2 2.6s1.4 1.6 2.2 2.4 1.6 1.6 2.4 2.2c0.8 0.8 1.8 1.4 2.6 2 1 0.6 1.8 1.2 2.8 1.8 1 0.6 2 1 3 1.4 1 0.4 2 0.8 3.2 1.2 1 0.4 2.2 0.6 3.2 0.8 1 0.2 2.2 0.4 3.2 0.4s2.2 0.2 3.4 0.2h33.8V790c0 2.2 0 4.4 0.2 6.6 0.2 2.2 0.2 4.4 0.4 6.6 0.2 2.2 0.4 4.4 0.8 6.6l1.2 6.6c0.4 2.2 1 4.4 1.4 6.4 0.6 2.2 1.2 4.2 1.8 6.4s1.4 4.2 2 6.2c0.8 2 1.6 4.2 2.4 6.2 0.8 2 1.8 4 2.6 6l3 6c1 2 2.2 3.8 3.2 5.8 1.2 1.8 2.4 3.8 3.6 5.6 1.2 1.8 2.4 3.6 3.8 5.4s2.6 3.6 4 5.2c1.4 1.8 2.8 3.4 4.4 5 1.4 1.6 3 3.2 4.6 4.8 1.6 1.6 3.2 3 4.8 4.6 1.6 1.4 3.4 3 5 4.4 1.8 1.4 3.4 2.8 5.2 4 1.8 1.4 3.6 2.6 5.4 3.8s3.8 2.4 5.6 3.6c1.8 1.2 3.8 2.2 5.8 3.2l6 3c2 1 4 1.8 6 2.6s4 1.6 6.2 2.4c2 0.8 4.2 1.4 6.2 2 2.2 0.6 4.2 1.2 6.4 1.8 2.2 0.6 4.2 1 6.4 1.4l6.6 1.2c2.2 0.4 4.4 0.6 6.6 0.8 2.2 0.2 4.4 0.4 6.6 0.4 2.2 0.2 4.4 0.2 6.6 0.2h67.6v33.8c0 1.2 0 2.2 0.2 3.4 0.2 1 0.2 2.2 0.4 3.2s0.4 2.2 0.8 3.2 0.6 2 1.2 3.2 0.8 2 1.4 3c0.6 1 1 2 1.8 2.8 0.6 1 1.2 1.8 2 2.6s1.4 1.6 2.2 2.4c0.8 0.8 1.6 1.6 2.4 2.2 0.8 0.8 1.8 1.4 2.6 2 1 0.6 1.8 1.2 2.8 1.8 1 0.6 2 1 3 1.4 1 0.4 2 0.8 3.2 1.2s2.2 0.6 3.2 0.8c1 0.2 2.2 0.4 3.2 0.4 1.2 0.2 2.2 0.2 3.4 0.2 1.2 0 2.2 0 3.4-0.2 1.2-0.2 2.2-0.2 3.2-0.4s2.2-0.4 3.2-0.8 2-0.6 3.2-1.2c1-0.4 2-0.8 3-1.4 1-0.6 2-1 2.8-1.8 1-0.6 1.8-1.2 2.6-2s1.6-1.4 2.4-2.2c0.8-0.8 1.6-1.6 2.2-2.4s1.4-1.8 2-2.6c0.6-1 1.2-1.8 1.8-2.8 0.6-1 1-2 1.4-3 0.4-1 0.8-2 1.2-3.2 0.4-1 0.6-2.2 0.8-3.2 0.2-1 0.4-2.2 0.4-3.2 0.2-1.2 0.2-2.2 0.2-3.4v-33.8h101.2v33.8c0 1.2 0 2.2 0.2 3.4 0.2 1 0.2 2.2 0.4 3.2s0.4 2.2 0.8 3.2 0.6 2 1.2 3.2c0.4 1 0.8 2 1.4 3 0.6 1 1 2 1.8 2.8 0.6 1 1.2 1.8 2 2.6s1.4 1.6 2.2 2.4c0.8 0.8 1.6 1.6 2.4 2.2 0.8 0.8 1.8 1.4 2.6 2s1.8 1.2 2.8 1.8c1 0.6 2 1 3 1.4 1 0.4 2 0.8 3.2 1.2 1 0.4 2.2 0.6 3.2 0.8 1 0.2 2.2 0.4 3.2 0.4 1.2 0.2 2.2 0.2 3.4 0.2 1.2 0 2.2 0 3.4-0.2 1.2-0.2 2.2-0.2 3.2-0.4s2.2-0.4 3.2-0.8 2-0.6 3.2-1.2c1-0.4 2-0.8 3-1.4 1-0.6 2-1 2.8-1.8s1.8-1.2 2.6-2 1.6-1.4 2.4-2.2c0.8-0.8 1.6-1.6 2.2-2.4 0.8-0.8 1.4-1.8 2-2.6 0.6-1 1.2-1.8 1.8-2.8s1-2 1.4-3 0.8-2 1.2-3.2c0.4-1 0.6-2.2 0.8-3.2s0.4-2.2 0.4-3.2c0.2-1.2 0.2-2.2 0.2-3.4v-33.8h101.2v33.8c0 1.2 0 2.2 0.2 3.4 0.2 1 0.2 2.2 0.4 3.2s0.4 2.2 0.8 3.2 0.6 2 1.2 3.2c0.4 1 0.8 2 1.4 3 0.6 1 1 2 1.8 2.8 0.6 1 1.2 1.8 2 2.6s1.4 1.6 2.2 2.4c0.8 0.8 1.6 1.6 2.4 2.2 0.8 0.8 1.8 1.4 2.6 2 1 0.6 1.8 1.2 2.8 1.8 1 0.6 2 1 3 1.4 1 0.4 2 0.8 3.2 1.2 1 0.4 2.2 0.6 3.2 0.8 1 0.2 2.2 0.4 3.2 0.4 1.2 0.2 2.2 0.2 3.4 0.2 1.2 0 2.2 0 3.4-0.2 1.2-0.2 2.2-0.2 3.2-0.4s2.2-0.4 3.2-0.8 2-0.6 3.2-1.2c1-0.4 2-0.8 3-1.4 1-0.6 2-1 2.8-1.8 1-0.6 1.8-1.2 2.6-2s1.6-1.4 2.4-2.2c0.8-0.8 1.6-1.6 2.2-2.4s1.4-1.8 2-2.6c0.6-1 1.2-1.8 1.8-2.8 0.6-1 1-2 1.4-3 0.4-1 0.8-2 1.2-3.2 0.4-1 0.6-2.2 0.8-3.2 0.2-1 0.4-2.2 0.4-3.2 0.2-1.2 0.2-2.2 0.2-3.4v-33.8H782c2.2 0 4.4 0 6.6-0.2 2.2-0.2 4.4-0.2 6.6-0.4 2.2-0.2 4.4-0.4 6.6-0.8l6.6-1.2c2.2-0.4 4.4-1 6.4-1.4 2.2-0.6 4.2-1.2 6.4-1.8 2.2-0.6 4.2-1.4 6.2-2 2-0.8 4.2-1.6 6.2-2.4 2-0.8 4-1.8 6-2.6l6-3c2-1 3.8-2.2 5.8-3.2 1.8-1.2 3.8-2.4 5.6-3.6s3.6-2.4 5.4-3.8c1.8-1.4 3.6-2.6 5.2-4 1.8-1.4 3.4-2.8 5-4.4 1.6-1.4 3.2-3 4.8-4.6 1.6-1.6 3-3.2 4.6-4.8s3-3.4 4.4-5c1.4-1.8 2.8-3.4 4-5.2s2.6-3.6 3.8-5.4c1.2-1.8 2.4-3.8 3.6-5.6 1.2-1.8 2.2-3.8 3.2-5.8l3-6c1-2 1.8-4 2.6-6s1.6-4 2.4-6.2c0.8-2 1.4-4.2 2-6.2s1.2-4.2 1.8-6.4c0.6-2.2 1-4.2 1.4-6.4l1.2-6.6c0.4-2.2 0.6-4.4 0.8-6.6s0.4-4.4 0.4-6.6c0.2-2.2 0.2-4.4 0.2-6.6v-67.6h33.8c1.2 0 2.2 0 3.4-0.2 1-0.2 2.2-0.2 3.2-0.4s2.2-0.4 3.2-0.8 2-0.6 3.2-1.2c1-0.4 2-0.8 3-1.4 1-0.6 2-1 2.8-1.8 1-0.6 1.8-1.2 2.6-2s1.6-1.4 2.4-2.2 1.6-1.6 2.2-2.4c0.8-0.8 1.4-1.8 2-2.6 0.6-1 1.2-1.8 1.8-2.8 0.6-1 1-2 1.4-3 0.4-1 0.8-2 1.2-3.2s0.6-2.2 0.8-3.2c0.2-1 0.4-2.2 0.4-3.2 0.2-1.2 0.2-2.2 0.2-3.4s0-2.2-0.2-3.4c-0.2-1.2-0.2-2.2-0.4-3.2s-0.4-2.2-0.8-3.2-0.6-2-1.2-3.2c-0.4-1-0.8-2-1.4-3-0.6-1-1-2-1.8-2.8-0.6-1-1.2-1.8-2-2.6s-1.4-1.6-2.2-2.4-1.6-1.6-2.4-2.2c-0.8-0.8-1.8-1.4-2.6-2-1-0.6-1.8-1.2-2.8-1.8-1-0.6-2-1-3-1.4-1-0.4-2-0.8-3.2-1.2s-2.2-0.6-3.2-0.8c-1-0.2-2.2-0.4-3.2-0.4-1.2-0.2-2.2-0.2-3.4-0.2h-33.8v-101.2h33.8c1.2 0 2.2 0 3.4-0.2 1-0.2 2.2-0.2 3.2-0.4s2.2-0.4 3.2-0.8 2-0.6 3.2-1.2c1-0.4 2-0.8 3-1.4 1-0.6 2-1 2.8-1.8 1-0.6 1.8-1.2 2.6-2s1.6-1.4 2.4-2.2 1.6-1.6 2.2-2.4c0.8-0.8 1.4-1.8 2-2.6 0.6-1 1.2-1.8 1.8-2.8 0.6-1 1-2 1.4-3 0.4-1 0.8-2 1.2-3.2 0.4-1 0.6-2.2 0.8-3.2 0.2-1 0.4-2.2 0.4-3.2 0.2-1 0.2-2.2 0.2-3.4s0-2.2-0.2-3.4c-0.2-1.2-0.2-2.2-0.4-3.2s-0.4-2.2-0.8-3.2-0.6-2-1.2-3.2-0.8-2-1.4-3c-0.6-1-1-2-1.8-2.8s-1.2-1.8-2-2.6-1.4-1.6-2.2-2.4c-0.8-0.8-1.6-1.6-2.4-2.2-0.8-0.8-1.8-1.4-2.6-2-1-0.6-1.8-1.2-2.8-1.8-1-0.6-2-1-3-1.4-1-0.4-2-0.8-3.2-1.2s-2.2-0.6-3.2-0.8c-1-0.2-2.2-0.4-3.2-0.4-1.2-0.2-2.2-0.2-3.4-0.2h-33.8v-101.2h34z"  /></svg>