<?xml version="1.0" encoding="UTF-8" standalone="no"?>
<!-- Created with Inkscape (http://www.inkscape.org/) -->

<svg
   width="210mm"
   height="210mm"
   viewBox="0 0 210 210"
   version="1.1"
   id="svg1"
   xml:space="preserve"
   inkscape:export-filename="donate2.svg"
   inkscape:export-xdpi="96"
   inkscape:export-ydpi="96"
   xmlns:inkscape="http://www.inkscape.org/namespaces/inkscape"
   xmlns:sodipodi="http://sodipodi.sourceforge.net/DTD/sodipodi-0.dtd"
   xmlns="http://www.w3.org/2000/svg"
   xmlns:svg="http://www.w3.org/2000/svg"><sodipodi:namedview
     id="namedview1"
     pagecolor="#ffffff"
     bordercolor="#000000"
     borderopacity="0.25"
     inkscape:showpageshadow="2"
     inkscape:pageopacity="0.0"
     inkscape:pagecheckerboard="0"
     inkscape:deskcolor="#d1d1d1"
     inkscape:document-units="mm"><inkscape:page
       x="0"
       y="0"
       width="210"
       height="210"
       id="page2"
       margin="0"
       bleed="0" /></sodipodi:namedview><defs
     id="defs1" /><g
     inkscape:label="Layer 1"
     inkscape:groupmode="layer"
     id="layer1"><path
       style="fill:#000000;stroke-width:1.5459"
       d="M 101.92227,197.80076 C 98.655856,196.54055 89.614542,191.9903 85.100353,189.33477 63.186968,176.44391 40.19515,155.11052 24.757646,133.34465 19.755164,126.29147 16.251417,120.47145 12.322763,112.68922 6.6766288,101.50487 3.899418,93.251857 1.4493435,80.376779 0.25132388,74.081223 0.15449671,64.337999 1.2328609,58.593103 4.2340457,42.604537 13.902735,28.517454 27.907835,19.728207 c 3.251215,-2.04038 9.669387,-4.905736 13.428548,-5.995097 17.390342,-5.0395245 35.756298,-2.005219 50.120518,8.280591 3.708848,2.655801 9.966469,8.613126 12.004299,11.428234 0.69211,0.956081 1.38002,1.738327 1.52872,1.738327 0.14871,0 0.83835,-0.782246 1.53258,-1.738327 0.69425,-0.956079 2.79611,-3.258961 4.6708,-5.117514 15.37377,-15.241393 36.60179,-20.6329305 57.45014,-14.591311 3.75915,1.089361 10.17732,3.954717 13.42854,5.995097 14.00591,8.789754 23.73983,22.985113 26.70619,38.946713 1.12208,6.037821 0.95004,15.446609 -0.4118,22.519896 -3.84945,19.993794 -11.71475,36.948424 -25.99505,56.035504 -10.67999,14.27492 -26.03715,29.6211 -41.00829,40.97898 -10.69846,8.1164 -23.47116,15.65606 -33.06924,19.52058 -3.15236,1.26926 -3.26219,1.27048 -6.37152,0.071 z"
       id="path1" /></g></svg>
