<svg class="svg-icon" style="width: 1em; height: 1em;vertical-align: middle;fill: currentColor;overflow: hidden;" viewBox="0 0 1024 1024" version="1.1" xmlns="http://www.w3.org/2000/svg"><path d="M677.415385 151.630769c-13.784615-5.907692-27.569231 3.938462-27.569231 17.723077v74.830769c0 13.784615 7.876923 27.569231 19.692308 33.476923 104.369231 59.076923 171.323077 177.230769 155.56923 309.169231-15.753846 143.753846-131.938462 261.907692-277.661538 277.661539C358.4 886.153846 196.923077 736.492308 196.923077 551.384615c0-116.184615 63.015385-218.584615 157.538461-273.723077 11.815385-5.907692 19.692308-19.692308 19.692308-33.476923V169.353846c0-13.784615-13.784615-23.630769-27.569231-17.723077C179.2 220.553846 63.015385 393.846154 80.738462 590.769231c17.723077 202.830769 179.2 368.246154 382.030769 391.876923C722.707692 1010.215385 945.230769 807.384615 945.230769 551.384615c0-181.169231-110.276923-334.769231-267.815384-399.753846zM571.076923 68.923077c0-15.753846-13.784615-29.538462-29.538461-29.538462h-59.076924c-15.753846 0-29.538462 13.784615-29.538461 29.538462v334.769231c0 15.753846 13.784615 29.538462 29.538461 29.538461h59.076924c15.753846 0 29.538462-13.784615 29.538461-29.538461v-334.769231z"  /></svg>