<svg class="svg-icon" style="width: 1em; height: 1em;vertical-align: middle;fill: currentColor;overflow: hidden;" viewBox="0 0 1024 1024" version="1.1" xmlns="http://www.w3.org/2000/svg"><path d="M608.4 879.4H202c-31.7 0-57.5-25.8-57.5-57.5V202.1c0-31.7 25.8-57.4 57.5-57.4h406.4c22.1 0 40-17.9 40-40s-17.9-40-40-40H202c-75.8 0-137.5 61.7-137.5 137.4v619.8c0 75.8 61.7 137.5 137.5 137.5h406.4c22.1 0 40-17.9 40-40s-17.9-40-40-40z"  /><path d="M945 477.1L773.3 305.4c-15.6-15.6-40.9-15.6-56.6 0-15.6 15.6-15.6 40.9 0 56.6l110 110H322.6c-22.1 0-40 17.9-40 40s17.9 40 40 40h504.1l-110 110c-15.6 15.6-15.6 40.9 0 56.6 7.8 7.8 18 11.7 28.3 11.7s20.5-3.9 28.3-11.7L945 546.9c9.3-9.3 14.5-21.7 14.5-34.9-0.1-13.2-5.2-25.6-14.5-34.9z"  /></svg>